<?xml version="1.0" encoding="UTF-8"?>
<level>
  <owner>stolbitsa</owner>
  <repo>sedaya-noch-verse</repo>
  <version>v1.0.0</version>
  <next number="1" owner="stolbitsa" repo="crazy-frog"/>
  <readme>
    <ru>2ca67f08b3f0c8775b088c76292fa8211f0141040c2ca06b7c1b9e7ce5489b60</ru>
    <en>606c17935ebd53887e11cbee7aa9d390b9172845030ac5280cdbdbd0d6950653</en>
  </readme>
  <license>b1b99f5538d1fd3702219bff50c665196dfa42f6ee755c37fe41a6178d6bc6e5</license>
  <exercise number="1">
    <scale>minor</scale>
    <bpm>129</bpm>
    <lowestNote>86</lowestNote>
    <tonalities>5</tonalities>
    <video name="2-noch-1.mp4" size="1813183" type="video/mp4" volume="1">527afb36f4dc4d7553b397279fb3546b5b95b9f94d207f3f8b3f4556b326e106</video>
    <notes>
      <note number="1" values="5" ticks="97" durationTicks="31" ppq="96" velocity="0.887"/>
      <note number="2" values="5" ticks="146" durationTicks="36" ppq="96" velocity="0.787"/>
      <note number="3" values="5" ticks="193" durationTicks="37" ppq="96" velocity="0.889"/>
      <note number="4" values="5" ticks="241" durationTicks="86" ppq="96" velocity="0.732"/>
      <note number="5" values="6" ticks="337" durationTicks="68" ppq="96" velocity="0.897"/>
    </notes>
  </exercise>
  <exercise number="2">
    <scale>minor</scale>
    <bpm>129</bpm>
    <lowestNote>4</lowestNote>
    <tonalities>5</tonalities>
    <video name="1-noch-2.mp4" size="1865144" type="video/mp4" volume="1">d36e02a85b51b019317c1fdd472fc4236002fd0e1c769338dc8a46c613f8f236</video>
    <notes>
      <note number="1" values="6" ticks="84" durationTicks="47" ppq="96" velocity="0.887"/>
      <note number="2" values="48" ticks="135" durationTicks="95" ppq="96" velocity="0.787"/>
      <note number="3" values="5" ticks="231" durationTicks="44" ppq="96" velocity="0.734"/>
      <note number="4" values="38" ticks="278" durationTicks="86" ppq="96" velocity="0.921"/>
      <note number="5" values="4" ticks="373" durationTicks="44" ppq="96" velocity="0.792"/>
      <note number="6" values="28" ticks="422" durationTicks="191" ppq="96" velocity="0.921"/>
    </notes>
  </exercise>
  <exercise number="3">
    <scale>minor</scale>
    <bpm>129</bpm>
    <lowestNote>2</lowestNote>
    <tonalities>5</tonalities>
    <video name="1-noch-3.mp4" size="1913917" type="video/mp4" volume="1">e3843b43869135e3a76d9e27a5d5aafd462f12583f34fa21db32ad03e1a8216b</video>
    <notes>
      <note number="1" values="4" ticks="84" durationTicks="47" ppq="96" velocity="0.887"/>
      <note number="2" values="28" ticks="135" durationTicks="95" ppq="96" velocity="0.787"/>
      <note number="3" values="3" ticks="231" durationTicks="44" ppq="96" velocity="0.734"/>
      <note number="4" values="18" ticks="278" durationTicks="86" ppq="96" velocity="0.921"/>
      <note number="5" values="2" ticks="373" durationTicks="44" ppq="96" velocity="0.792"/>
      <note number="6" values="79" ticks="422" durationTicks="191" ppq="96" velocity="0.921"/>
    </notes>
  </exercise>
  <exercise number="4">
    <scale>minor</scale>
    <bpm>129</bpm>
    <lowestNote>4</lowestNote>
    <tonalities>5</tonalities>
    <video name="1-noch-4.mp4" size="1993634" type="video/mp4" volume="1">991f011bbe16a0fc141e6e4447d04a5b9c13722e4646ed4a449d2e66a658257d</video>
    <notes>
      <note number="1" values="5" ticks="84" durationTicks="47" ppq="96" velocity="0.887"/>
      <note number="2" values="38" ticks="135" durationTicks="95" ppq="96" velocity="0.787"/>
      <note number="3" values="4" ticks="231" durationTicks="44" ppq="96" velocity="0.734"/>
      <note number="4" values="28" ticks="278" durationTicks="86" ppq="96" velocity="0.921"/>
      <note number="5" values="5" ticks="373" durationTicks="44" ppq="96" velocity="0.792"/>
      <note number="6" values="38" ticks="422" durationTicks="191" ppq="96" velocity="0.921"/>
    </notes>
  </exercise>
  <exercise number="5">
    <scale>minor</scale>
    <bpm>129</bpm>
    <lowestNote>6</lowestNote>
    <tonalities>5</tonalities>
    <video name="1-noch-5.mp4" size="1925878" type="video/mp4" volume="1">5d27c26d068d95459fbb4682364bd56d5bf983bbf8465b6d34491c7f7abd3f63</video>
    <notes>
      <note number="1" values="18" ticks="84" durationTicks="47" ppq="96" velocity="0.887"/>
      <note number="2" values="68" ticks="135" durationTicks="95" ppq="96" velocity="0.787"/>
      <note number="3" values="7" ticks="231" durationTicks="44" ppq="96" velocity="0.734"/>
      <note number="4" values="58" ticks="278" durationTicks="86" ppq="96" velocity="0.921"/>
      <note number="5" values="6" ticks="373" durationTicks="44" ppq="96" velocity="0.792"/>
      <note number="6" values="48" ticks="422" durationTicks="192" ppq="96" velocity="0.921"/>
    </notes>
  </exercise>
  <exercise number="6">
    <scale>minor</scale>
    <bpm>129</bpm>
    <lowestNote>4</lowestNote>
    <tonalities>5</tonalities>
    <video name="1-noch-6.mp4" size="1955277" type="video/mp4" volume="1">51e382d020a5d5a205820ed56d8f4ff2319e66401e9758e0fc45b5e19b69919a</video>
    <notes>
      <note number="1" values="5" ticks="84" durationTicks="47" ppq="96" velocity="0.887"/>
      <note number="2" values="38" ticks="135" durationTicks="95" ppq="96" velocity="0.787"/>
      <note number="3" values="4" ticks="231" durationTicks="44" ppq="96" velocity="0.734"/>
      <note number="4" values="28" ticks="278" durationTicks="86" ppq="96" velocity="0.921"/>
      <note number="5" values="5" ticks="373" durationTicks="44" ppq="96" velocity="0.792"/>
      <note number="6" values="38" ticks="422" durationTicks="191" ppq="96" velocity="0.921"/>
    </notes>
  </exercise>
  <exercise number="7">
    <scale>minor</scale>
    <bpm>129</bpm>
    <lowestNote>4</lowestNote>
    <tonalities>5</tonalities>
    <video name="1-noch-7.mp4" size="1960087" type="video/mp4" volume="1">9e49eaece89e709e240d9f3c7395e76133a995add6cb74eac7785c30535313b5</video>
    <notes>
      <note number="1" values="28" ticks="84" durationTicks="47" ppq="96" velocity="0.887"/>
      <note number="2" values="18" ticks="135" durationTicks="95" ppq="96" velocity="0.787"/>
      <note number="3" values="48" ticks="231" durationTicks="95" ppq="96" velocity="0.734"/>
      <note number="4" values="38" ticks="373" durationTicks="48" ppq="96" velocity="0.921"/>
      <note number="5" values="28" ticks="423" durationTicks="97" ppq="96" velocity="0.792"/>
      <note number="6" values="18" ticks="561" durationTicks="50" ppq="96" velocity="0.921"/>
      <note number="7" values="28" ticks="610" durationTicks="95" ppq="96" velocity="0.921"/>
      <note number="8" values="79" ticks="754" durationTicks="52" ppq="96" velocity="0.921"/>
      <note number="9" values="18" ticks="805" durationTicks="95" ppq="96" velocity="0.921"/>
    </notes>
  </exercise>
</level>
